<?xml version="1.0" encoding="UTF-8"?>
<!-- Created with Inkscape (http://www.inkscape.org/) -->
<svg width="51.577mm" height="78.379mm" version="1.1" viewBox="0 0 51.577 78.379" xmlns="http://www.w3.org/2000/svg">
 <g transform="translate(-18.823 -43.838)">
  <path d="m28.65 43.838c0.31977 0.21748 0.63477 0.4365 0.94517 0.65577 0.31071 0.21949 0.61683 0.43983 0.91828 0.66094 0.30145 0.22111 0.59805 0.4425 0.89039 0.66508 0.29234 0.22257 0.58014 0.44586 0.86351 0.66973 0.28337 0.22386 0.56263 0.44835 0.83716 0.67334s0.54446 0.45049 0.81029 0.67644c0.26584 0.22595 0.52717 0.45279 0.78444 0.67954 0.2573 0.22675 0.51078 0.45371 0.75965 0.6811 0.24886 0.22739 0.49322 0.45479 0.73381 0.68265 0.24058 0.22785 0.47706 0.45604 0.70951 0.6842 0.23245 0.22816 0.46077 0.45641 0.68523 0.68471 0.22445 0.2283 0.44539 0.45644 0.66198 0.68471 0.2166 0.22828 0.42932 0.45663 0.6382 0.68471 0.20887 0.22809 0.41365 0.45595 0.61495 0.68368 0.20129 0.22773 0.39887 0.45544 0.59273 0.68265 0.19385 0.22721 0.38396 0.45405 0.57051 0.68058 0.18656 0.22653 0.36941 0.45283 0.5488 0.67851s0.35525 0.45074 0.52762 0.67541 0.34145 0.44882 0.50694 0.67231c0.16549 0.22349 0.32754 0.44654 0.48628 0.66869 0.15875 0.22215 0.31398 0.4434 0.46612 0.66404 0.15213 0.22064 0.30132 0.44042 0.447 0.65939 0.29134 0.43793 0.5698 0.87251 0.83613 1.3028 0.26632 0.43026 0.52032 0.85618 0.76274 1.2774 0.24241 0.42126 0.47335 0.83755 0.69298 1.2485 0.21962 0.41095 0.42785 0.81663 0.6258 1.2159 0.19794 0.39932 0.38539 0.79237 0.56276 1.1787 0.17739 0.38637 0.34487 0.76581 0.50281 1.1379 0.15793 0.37211 0.30638 0.73695 0.44597 1.0935 0.1396 0.35652 0.27037 0.70476 0.39274 1.0444 0.12238 0.33962 0.23633 0.67078 0.34261 0.99219 0.10628 0.3214 0.20482 0.63348 0.29611 0.93534 0.0913 0.30187 0.17529 0.59335 0.2527 0.87436 0.0774 0.28102 0.14825 0.55144 0.2129 0.81029 0.0647 0.25884 0.12321 0.5062 0.17622 0.74156 0.053 0.23535 0.10066 0.45867 0.14314 0.66921 0.0425 0.21055 0.0796 0.40831 0.11266 0.59273 0.0661 0.36885 0.11469 0.68408 0.14986 0.94052 0.0352 0.25644 0.0572 0.45407 0.0703 0.58756s0.0176 0.20309 0.0176 0.20309c-0.10315-0.37125-0.20914-0.73891-0.31781-1.1023-0.10868-0.36335-0.22038-0.72246-0.33435-1.078-0.11397-0.35551-0.2303-0.70748-0.34933-1.0552-0.11904-0.34775-0.24045-0.69141-0.36432-1.0315-0.12388-0.34005-0.2503-0.6763-0.37879-1.0087s-0.25934-0.66114-0.39222-0.98599-0.26759-0.64589-0.40463-0.96325c-0.13704-0.31736-0.27605-0.6311-0.41703-0.94103-0.14098-0.30992-0.28423-0.61573-0.42891-0.91829-0.14469-0.30256-0.29108-0.60185-0.43925-0.8971-0.14817-0.29526-0.29816-0.58685-0.44959-0.87488-0.15142-0.28803-0.30444-0.57232-0.45888-0.85318-0.15446-0.28086-0.3099-0.55823-0.46716-0.83199-0.15726-0.27376-0.3161-0.54407-0.47594-0.8108s-0.32099-0.52986-0.48317-0.78962c-0.16219-0.25976-0.32558-0.51609-0.4899-0.76895-0.16431-0.25286-0.32936-0.50224-0.49557-0.74827s-0.33338-0.48834-0.50126-0.7276c-0.16789-0.23926-0.33659-0.47541-0.50592-0.70797-0.16932-0.23256-0.3395-0.46188-0.51004-0.68781-0.17055-0.22593-0.34161-0.4483-0.51315-0.66766-0.17154-0.21936-0.34343-0.43568-0.51573-0.64854-0.1723-0.21286-0.34496-0.42248-0.5178-0.6289-0.17284-0.20643-0.34568-0.40972-0.51883-0.60978-0.34631-0.40013-0.69301-0.78766-1.0392-1.1627-0.34621-0.37506-0.69183-0.73778-1.0361-1.0883-0.34429-0.35052-0.68729-0.68892-1.0278-1.0154-0.34056-0.32652-0.67888-0.64108-1.0139-0.94413-0.33502-0.30305-0.6666-0.59425-0.99426-0.87436-0.32766-0.28012-0.65147-0.54896-0.96996-0.80667-0.3185-0.25771-0.63196-0.50417-0.93948-0.74001-0.30752-0.23584-0.60909-0.46091-0.90382-0.67541-0.29474-0.2145-0.58235-0.41867-0.86248-0.61237-0.28014-0.19369-0.55276-0.37693-0.81649-0.55035-0.26373-0.17342-0.51879-0.33724-0.76429-0.49093-0.24551-0.15368-0.48146-0.29754-0.70694-0.43202-0.22547-0.13448-0.44025-0.25937-0.64388-0.37517-0.20363-0.1158-0.39622-0.22222-0.5762-0.31988-0.35994-0.19532-0.67055-0.35516-0.92501-0.48111-0.25445-0.12595-0.45257-0.21821-0.58704-0.27905-0.13211-0.05978-0.1991-0.08787-0.20154-0.08888-0.1029 0.05962-0.20353 0.11641-0.31367 0.185-0.17053 0.1062-0.34882 0.22356-0.5333 0.35243-0.18449 0.12887-0.37518 0.26923-0.56948 0.4222-0.1943 0.15296-0.39222 0.31814-0.59221 0.49661-0.1 0.08924-0.20063 0.18214-0.30128 0.27802-0.10065 0.09589-0.20153 0.19495-0.3023 0.29766-0.10077 0.10271-0.20141 0.20862-0.30179 0.31833-0.10038 0.10971-0.20025 0.22315-0.29972 0.34003-0.0995 0.11688-0.19857 0.2375-0.29663 0.36173-0.0981 0.12424-0.19533 0.25218-0.29145 0.38396-0.0961 0.13178-0.19108 0.2672-0.28474 0.40669-0.0937 0.13949-0.18578 0.28309-0.27647 0.43047-0.0907 0.14738-0.17995 0.2988-0.26717 0.45424-0.0872 0.15544-0.1726 0.31484-0.25579 0.47852-0.0832 0.16369-0.16421 0.33174-0.24288 0.50385-0.0787 0.17211-0.15477 0.34846-0.22841 0.52917-0.0736 0.1807-0.14483 0.36552-0.21291 0.555-0.0681 0.18948-0.13333 0.38344-0.19534 0.58188-0.062 0.19844-0.12256 0.41725-0.18138 0.65578-0.0588 0.23852-0.11566 0.49688-0.17002 0.77308-0.0544 0.2762-0.1064 0.57066-0.15503 0.88212-0.0486 0.31145-0.0938 0.63962-0.13539 0.98392-0.0416 0.3443-0.0798 0.70428-0.11317 1.079-0.0334 0.37472-0.062 0.76412-0.0858 1.1669-0.0238 0.40274-0.0428 0.81913-0.0558 1.2475-0.013 0.42834-0.0202 0.86881-0.0212 1.3203-1e-3 0.45152 5e-3 0.91419 0.0171 1.3865 0.0124 0.47229 0.0314 0.95423 0.0584 1.4449s0.062 0.98996 0.10491 1.4965c0.0429 0.50659 0.094 1.0204 0.15399 1.5405 0.0416 0.36015 0.0933 0.72679 0.14367 1.0924l0.84231 3.3751 0.2248 2.0799c0.0637 0.24587 0.12909 0.49218 0.19741 0.73846 0.0478 0.17236 0.0987 0.3448 0.14883 0.51728l0.36888 0.43805 0.1784 0.51938-0.0905 0.51432c0.0541 0.16391 0.10743 0.32769 0.16381 0.49144 0.0948 0.27529 0.19283 0.55069 0.29404 0.82528 0.0393 0.10663 0.0812 0.21286 0.12144 0.31936l1.0188 1.4598 0.29015 1.5964c0.11164 0.23151 0.22455 0.46261 0.34158 0.69246 0.0825 0.16211 0.16901 0.32301 0.25425 0.48421l0.58818 0.51776 1.2345 2.1765 0.99368 1.7442c0.11394 0.15067 0.22655 0.30211 0.34364 0.45113 0.19071 0.24273 0.38525 0.4833 0.58446 0.72141s0.40297 0.47374 0.61082 0.70693c0.20786 0.23319 0.41999 0.46398 0.63665 0.69195s0.43791 0.45297 0.66353 0.67541c0.22563 0.22245 0.45565 0.44224 0.6904 0.65887 0.23475 0.21662 0.47427 0.4303 0.7183 0.64079 0.24404 0.2105 0.49274 0.4176 0.74621 0.62167s0.51156 0.40521 0.77463 0.60255 0.53074 0.39104 0.80356 0.58135c0.27283 0.19031 0.55079 0.37721 0.83355 0.56018 0.28275 0.18297 0.57069 0.36209 0.86351 0.53743 0.29283 0.17533 0.59043 0.34677 0.89348 0.51418 0.30306 0.1674 0.61156 0.33073 0.92501 0.48989 0.31346 0.15916 0.63202 0.31396 0.95602 0.46458 0.11322 0.0526 0.23067 0.10191 0.34519 0.15348l-0.0904-0.1664 2.583 1.1872 1.2498 1.3476c0.18453 0.14096 0.36908 0.28162 0.56328 0.43666 0.16004 0.12777 0.32798 0.26942 0.4935 0.4067l1.4305 0.73258 2.0197 2.0354 0.41057 1.0163c0.10613 0.12405 0.21256 0.24778 0.31781 0.37517 0.14231 0.17223 0.28349 0.34725 0.42375 0.52555 0.14026 0.17829 0.27934 0.35981 0.41703 0.54415 0.0552 0.0739 0.10911 0.15047 0.16381 0.22531l0.57883 0.37654 0.10588 0.60428c0.11659 0.1759 0.23245 0.35316 0.34572 0.53382 0 0 0.0429 0.11507 0.11627 0.33693 0.0269 0.0813 0.0755 0.24896 0.11007 0.35863l0.49881 0.79059 0.43512 1.4513-0.0725 1.1254c0.0626 0.29954 0.1256 0.60511 0.18707 0.93379 0.0597 0.31912 0.11668 0.66118 0.17363 1.0067l0.2394 1.5987 2.4949 1.1936c0.0263-0.0738 0.19779-0.56327 0.22469-0.63746 0.12177-0.33644 0.2494-0.67686 0.38293-1.0206 0.13351-0.34374 0.27333-0.69082 0.41909-1.0402 0.0737-0.17655 0.15362-0.35509 0.23048-0.53278l0.60381-2.4243 1.0927-1.0473c0.0466-0.0847 0.0895-0.16965 0.13694-0.25424 0.19959-0.35603 0.40636-0.71141 0.62063-1.0651 0.10618-0.17522 0.21983-0.34861 0.3297-0.52296l0.31341-1.2284 0.34454-0.28461 0.90216-0.7494c0.0832-0.11035 0.16206-0.22275 0.24701-0.33228 0.13062-0.16839 0.26317-0.33602 0.39791-0.5023s0.27138-0.3316 0.41031-0.49557 0.28006-0.32637 0.42323-0.48783c0.14318-0.16145 0.28867-0.32186 0.43615-0.48059 0.14749-0.15874 0.29722-0.31599 0.44907-0.47181 0.15186-0.15582 0.3057-0.31032 0.46198-0.46302 0.15629-0.1527 0.31465-0.3033 0.47543-0.45268 0.16078-0.14939 0.32405-0.29702 0.48938-0.44287 0.16531-0.14586 0.33286-0.28989 0.50281-0.43202 0.16994-0.14212 0.34214-0.28244 0.51676-0.42064 0.17462-0.13819 0.35189-0.27469 0.53123-0.40876 0.17936-0.13407 0.36104-0.2661 0.54519-0.39584 0 0 0.13069-0.0704 0.32298-0.18966l0.78393-1.0626 0.87591-0.21329c0.044-0.0403 0.0872-0.0779 0.13178-0.11989 0.10435-0.0983 0.21003-0.20115 0.31678-0.30902 0.10675-0.10786 0.21448-0.2204 0.32246-0.33797 0.0472-0.0514 0.0943-0.10744 0.14159-0.16071l0.0568-0.58238 0.0382-0.24429 0.56643 0.0133c0.0538-0.0723 0.10807-0.14215 0.16123-0.21704 0.10457-0.14731 0.20794-0.29991 0.30903-0.45734 0.10106-0.15744 0.19971-0.31964 0.2961-0.48731 0.0304-0.0529 0.0585-0.10987 0.0884-0.16381l0.0507-0.51711 0.28827-0.14642c0.0381-0.0807 0.0781-0.15861 0.11473-0.24133 0.0835-0.18849 0.16346-0.38231 0.23874-0.58136 0.0753-0.19905 0.14599-0.40316 0.21188-0.61288 0.0659-0.20973 0.12659-0.42493 0.1819-0.64544 0.0553-0.22051 0.10527-0.44658 0.14882-0.67799 0.0435-0.2314 0.081-0.46814 0.11162-0.71055 0.0306-0.2424 0.0543-0.49012 0.0708-0.74363 0.0165-0.25352 0.0257-0.51247 0.0269-0.77721 1e-3 -0.26473-6e-3 -0.53525-0.0212-0.81132-0.0153-0.27606-0.0389-0.55793-0.0718-0.84543s-0.0753-0.58048-0.12713-0.87953c-0.0518-0.29904-0.11319-0.60397-0.185-0.91467-0.0718-0.3107-0.15399-0.62735-0.24701-0.94982 0 0-0.0234-0.12902-0.0765-0.37258s-0.13552-0.60191-0.25373-1.0594c-0.0591-0.22874-0.12698-0.48196-0.20464-0.75861-0.0776-0.27666-0.16532-0.57676-0.26303-0.89762-0.0977-0.32087-0.20576-0.66286-0.32505-1.0242-0.11928-0.36137-0.24985-0.74182-0.39222-1.14-0.14237-0.39817-0.29658-0.81362-0.46354-1.2449-0.16696-0.43126-0.34644-0.8783-0.5395-1.3389-0.19306-0.46065-0.39945-0.9353-0.62012-1.4216-0.22067-0.48633-0.45559-0.98463-0.70538-1.4929-0.1249-0.25415-0.25357-0.51051-0.38603-0.76946-0.13246-0.25895-0.26855-0.52013-0.40876-0.78341-0.14021-0.26328-0.28437-0.52866-0.43253-0.79582-0.14815-0.26716-0.30054-0.5361-0.45682-0.80667-0.15629-0.27056-0.31651-0.54298-0.48111-0.81649-0.1646-0.27351-0.33332-0.54824-0.50643-0.82424-0.1731-0.276-0.35098-0.55294-0.53278-0.83096-0.18181-0.27801-0.36793-0.55707-0.55862-0.83664-0.19068-0.27957-0.38573-0.5596-0.5855-0.84026-0.19976-0.28066-0.40386-0.56207-0.61288-0.84336-0.20903-0.28129-0.42283-0.56294-0.6413-0.84439-0.21847-0.28146-0.44161-0.56272-0.66973-0.84388-0.22811-0.28116-0.46124-0.56192-0.69918-0.84232s-0.48069-0.56056-0.72864-0.83974c-0.24796-0.27918-0.50097-0.5576-0.75913-0.83509-0.25815-0.27749-0.52158-0.55407-0.79013-0.82941-0.26856-0.27534-0.54251-0.54945-0.82165-0.82217-0.27914-0.27272-0.56379-0.54374-0.8537-0.81339-0.28992-0.26965-0.58486-0.53798-0.88573-0.80408-0.30087-0.26611-0.60731-0.53009-0.91932-0.7922-0.31203-0.2621-0.62956-0.52216-0.95292-0.7798-0.32335-0.25764-0.65266-0.51262-0.98754-0.76533-0.33488-0.25271-0.67556-0.50302-1.0222-0.75034-0.34659-0.24731-0.6993-0.49183-1.0578-0.73329-0.3585-0.24146-0.72288-0.48006-1.0935-0.7152-0.37059-0.23514-0.74728-0.46669-1.1302-0.69505-0.38287-0.22836-0.77203-0.45327-1.1674-0.67438-0.39536-0.22111-0.79709-0.43876-1.2051-0.65216-0.40802-0.2134-0.82196-0.42264-1.2428-0.62787-0.42086-0.20523-0.8482-0.40648-1.2821-0.60306-0.43391-0.19659-0.87476-0.3887-1.3219-0.57619-0.44711-0.18749-0.90063-0.37036-1.3612-0.54829-0.46055-0.17793-0.92786-0.35093-1.402-0.51883-0.47414-0.1679-0.9554-0.33041-1.4433-0.48782-0.48793-0.15741-0.98275-0.30932-1.4847-0.45578s-1.011-0.28767-1.527-0.42271c-0.51608-0.13505-1.039-0.26389-1.5694-0.38706-0.53045-0.12316-1.0684-0.24058-1.6133-0.3514-0.54498-0.11082-1.097-0.21514-1.6568-0.31316-7.9e-4 -1.51e-4 -2e-3 -2.54e-4 -3e-3 -5.3e-4zm24.406 69.403-2.2651 0.93463c0.01 0.1277 0.066 0.79171 0.0749 0.9213 0.0188 0.27127 0.0357 0.54693 0.0506 0.8263s0.0272 0.56287 0.0377 0.85008c0.0105 0.28722 0.019 0.57801 0.0248 0.87281 6e-3 0.2948 9e-3 0.59343 0.01 0.89556 7.9e-4 0.30213-1e-3 0.60805-6e-3 0.91725s-0.0126 0.6219-0.0233 0.93793c-0.0107 0.31602-0.0245 0.63498-0.0413 0.95756-0.0149 0.28471-0.0331 0.57285-0.0532 0.86248h8e-3c8e-3 -0.0684 0.0252-0.23045 0.0889-0.64802 0.0375-0.24574 0.0867-0.54632 0.14883-0.89555 0.0621-0.34924 0.13731-0.74721 0.22789-1.187 0.0906-0.43981 0.19639-0.92174 0.31936-1.4392 0.0615-0.25873 0.12709-0.5263 0.19741-0.80202 0.0703-0.27571 0.14516-0.5595 0.22479-0.85059 0.0796-0.2911 0.1643-0.58967 0.25373-0.89452 0.0894-0.30486 0.18346-0.61576 0.28319-0.93276 0.0986-0.31328 0.32975-1.0027 0.43883-1.3262z" fill="#25523b"/>
  <g fill="#6f917c">
   <path d="m53.15 99.622-1.1906 3.0758 3.7042 2.0836z"/>
   <path d="m53.15 99.622 2.5135 5.1594-3.7042-2.0836z"/>
   <path d="m45.477 96.381 5.424 5.4901 1.2898-3.4065z"/>
   <path d="m45.477 96.381 6.7138 2.0836-1.2898 3.4065z"/>
   <path d="m57.846 94.231-3.638 3.6049 5.0271 2.0836z"/>
   <path d="m57.846 94.231 1.3891 5.6885-5.0271-2.0836z"/>
   <path d="m62.708 92.544-2.9104 0.66146 3.638 2.6458z"/>
   <path d="m62.708 92.544 0.7276 3.3073-3.638-2.6458z"/>
   <path d="m52.025 90.626 1.4883 6.0854 3.5388-3.6049z"/>
   <path d="m52.025 90.626 5.0271 2.4805-3.5388 3.6049z"/>
   <path d="m50.636 90.527-5.9531 4.1341 7.5406 2.4474z"/>
   <path d="m50.636 90.527 1.5875 6.5815-7.5406-2.4474z"/>
   <path d="m36.283 89.402 0.76068 3.2412 3.638 0.89297z"/>
   <path d="m36.283 89.402 4.3987 4.1341-3.638-0.89297z"/>
   <path d="m60.757 87.815-1.5544 4.2003 3.1419-0.69453z"/>
   <path d="m60.757 87.815 1.5875 3.5057-3.1419 0.69453z"/>
   <path d="m29.834 87.583 5.5562 3.9357-0.92604-3.4065z"/>
   <path d="m29.834 87.583 4.6302 0.52917 0.92604 3.4065z"/>
   <path d="m62.08 87.385 1.4221 3.3404 2.0174-1.7529z"/>
   <path d="m62.08 87.385 3.4396 1.5875-2.0174 1.7529z"/>
   <path d="m54.837 87.219-2.5797 2.1497 4.531 2.1167z"/>
   <path d="m54.837 87.219 1.9513 4.2664-4.531-2.1167z"/>
   <path d="m43.625 87.087 0.16536 6.5815 5.8539-4.068z"/>
   <path d="m43.625 87.087 6.0193 2.5135-5.8539 4.068z"/>
   <path d="m42.236 86.856-5.7547 1.0583 5.9531 5.424z"/>
   <path d="m42.236 86.856 0.19844 6.4823-5.9531-5.424z"/>
   <path d="m59.765 86.723-3.638 0.13229 1.9844 4.2995z"/>
   <path d="m59.765 86.723-1.6536 4.4318-1.9844-4.2995z"/>
   <path d="m34.034 82.821-4.8948 3.4065 5.1924 0.52917z"/>
   <path d="m34.034 82.821 0.29766 3.9357-5.1924-0.52917z"/>
   <path d="m35.357 82.655 0.26458 4.0349 5.2917-0.99218z"/>
   <path d="m35.357 82.655 5.5562 3.0427-5.2917 0.99218z"/>
   <path d="m56.193 82.457-0.33072 3.1088 3.2411-0.13229z"/>
   <path d="m56.193 82.457 2.9104 2.9766-3.2411 0.13229z"/>
   <path d="m46.271 81.332-2.4143 4.3656 5.7878 2.4805z"/>
   <path d="m46.271 81.332 3.3734 6.8461-5.7878-2.4805z"/>
   <path d="m45.146 80.671-3.2742 0.39688 1.1906 3.3734z"/>
   <path d="m45.146 80.671-2.0836 3.7703-1.1906-3.3734z"/>
   <path d="m28.246 79.017-0.19844 6.4161 5.2917-3.8034z"/>
   <path d="m28.246 79.017 5.0932 2.6128-5.2917 3.8034z"/>
   <path d="m36.283 77.331-0.72761 3.4065 3.9357-0.66146z"/>
   <path d="m36.283 77.331 3.2081 2.745-3.9357 0.66146z"/>
   <path d="m35.026 76.934-5.457 1.2898 4.5971 2.282z"/>
   <path d="m35.026 76.934-0.8599 3.5719-4.5971-2.282z"/>
   <path d="m40.814 76.239-3.3404 0.3638 2.9766 2.6128z"/>
   <path d="m40.814 76.239-0.3638 2.9766-2.9766-2.6128z"/>
   <path d="m29.371 69.261-3.7703 1.9513 8.1029 3.3404z"/>
   <path d="m29.371 69.261 4.3326 5.2917-8.1029-3.3404z"/>
   <path d="m20.871 66.417 3.2742 4.0018 3.638-1.819z"/>
   <path d="m20.871 66.417 6.9122 2.1828-3.638 1.819z"/>
   <path d="m23.054 61.522-3.0096 3.3073 7.6398 2.282z"/>
   <path d="m23.054 61.522 4.6302 5.5893-7.6398-2.282z"/>
   <path d="m56.01 106.54-3.6871-2.0221 1.9906 5.4937c0.0753-0.17401 0.14689-0.34702 0.22531-0.52193 0.15849-0.3535 0.32387-0.70909 0.49557-1.065 0.17171-0.35596 0.34997-0.71238 0.53537-1.0692 0.14136-0.27204 0.29071-0.54376 0.44028-0.81546z"/>
   <path d="m58.658 102.43 0.57774-1.0594-4.7294-2.0174 2.5916 5.3392c0.11186-0.17751 0.22015-0.35589 0.33589-0.53227 0.22944-0.34964 0.4665-0.69674 0.71159-1.0408 0.16538-0.23213 0.33993-0.46039 0.51263-0.68936z"/>
   <path d="m66.527 95.182-2.2645-1.7782 0.60461 3.0541c0.0136-8e-3 8e-3 -4e-3 0.0227-0.0134 0.10893-0.0684 0.24039-0.15443 0.38964-0.25838 0.14924-0.10396 0.31598-0.22604 0.49609-0.36639s0.37363-0.29937 0.57516-0.47697c0.0577-0.0508 0.11728-0.10679 0.17622-0.16072z"/>
   <path d="m68.101 93.441-1.5896-3.576-2.249 1.8521 3.1771 2.5373c0.0609-0.0686 0.12163-0.13503 0.18242-0.20671 0.10802-0.12737 0.21609-0.25959 0.32298-0.39687 0.0525-0.0675 0.104-0.1399 0.15606-0.20981z"/>
   <path d="m69.295 91.452-0.96429-0.69402 0.62529 1.3575c0.0648-0.11699 0.13027-0.23316 0.19223-0.35502 0.0508-0.0999 0.0981-0.20532 0.14677-0.3085z"/>
   <path d="m20.369 72.158 2.5523-1.1116-3.6194-4.3434c0.0224 0.16241 0.0394 0.32186 0.0636 0.48524 0.0392 0.26561 0.081 0.53253 0.12506 0.80047 0.0441 0.26794 0.0905 0.53671 0.13953 0.80667 0.0491 0.26996 0.1008 0.54119 0.15503 0.81287 0.0542 0.27168 0.11099 0.5439 0.17053 0.817 0.0595 0.2731 0.12153 0.54692 0.18655 0.82114 0.065 0.27422 0.13295 0.54869 0.20361 0.82372 8e-3 0.02922 0.0157 0.05862 0.0233 0.08785z"/>
   <path d="m21.172 74.886 5.0235 1.9156-2.4805-4.6302-2.9998 1.2428c0.03 0.10325 0.0585 0.20629 0.0894 0.30955 0.0824 0.27576 0.16781 0.55167 0.25632 0.82734 0.0359 0.11169 0.0742 0.22323 0.1111 0.33487z"/>
   <path d="m23.06 79.578 2.8706-1.4867-4.1796-1.5694c0.0634 0.16774 0.12578 0.33547 0.19171 0.50281 0.1078 0.2736 0.21929 0.54678 0.33383 0.81907 0.11455 0.2723 0.23254 0.54373 0.35399 0.81443 0.12144 0.27069 0.24615 0.54045 0.37465 0.80925 0.0177 0.037 0.0369 0.0736 0.0548 0.11059z"/>
   <path d="m26.472 85.193 0.28526 0.17415 0.0992-6.2508-3.2008 1.6381c0.0549 0.1039 0.10772 0.20862 0.16381 0.31212 0.14311 0.26409 0.29016 0.52679 0.4408 0.78807 0.15065 0.26128 0.3052 0.5211 0.46354 0.77928s0.32059 0.5147 0.48679 0.76946c0.1662 0.25477 0.33635 0.50756 0.51057 0.75861 0.17421 0.25106 0.35246 0.5002 0.53485 0.74724 0.0704 0.0954 0.14436 0.18897 0.216 0.28371z"/>
   <path d="m41.604 96.633 0.632-1.311-4.4648-1.2237 0.0904 0.1664c0.21321 0.096 0.42511 0.19301 0.64286 0.28525 0 0 0.0986 0.0535 0.27905 0.15968 0.18048 0.10619 0.44298 0.26498 0.7705 0.47593 0.16376 0.10548 0.3437 0.22414 0.53795 0.35554 0.19424 0.1314 0.40266 0.27591 0.62322 0.43305 0.22055 0.15713 0.4534 0.32683 0.69608 0.50953 0.0619 0.0466 0.12962 0.10112 0.19275 0.14934z"/>
   <path d="m46.521 101.26 2.4944 0.60978-5.6555-5.8539-0.6997 1.4599c0.10405 0.0863 0.20416 0.16576 0.31006 0.2558 0.2744 0.23328 0.55421 0.47912 0.83819 0.73742 0.28399 0.2583 0.57206 0.5287 0.86145 0.81184s0.58013 0.57896 0.87075 0.88677c0.14531 0.1539 0.2908 0.31074 0.43563 0.47077s0.28922 0.32323 0.43305 0.48937c0.0375 0.0433 0.0743 0.0886 0.11162 0.1323z"/>
   <path d="m48.529 103.91 0.91726-0.58601-1.602-0.39481c0.0818 0.11191 0.16428 0.22286 0.24495 0.33693 0.1346 0.19036 0.26743 0.38345 0.39842 0.57981 0.014 0.021 0.0274 0.043 0.0413 0.0641z"/>
   <path d="m49.962 108.51 3.4525 2.821-2.6458-7.243-1.6681 1.0547c0.0597 0.18943 0.1121 0.34897 0.18965 0.6196 0.0612 0.21366 0.12693 0.45171 0.19586 0.71365 0.0689 0.26194 0.14087 0.54759 0.21445 0.85576 0.0736 0.30818 0.14908 0.63879 0.22428 0.99116 0.0125 0.0588 0.0247 0.12707 0.0372 0.18707z"/>
   <path d="m50.834 114.72 2.095-1.109c1e-3 -4e-3 2e-3 -8e-3 4e-3 -0.0114 0.0861-0.25531 0.17835-0.51586 0.2713-0.7767l-2.8815-2.3745c0.0134 0.0816 0.0281 0.15468 0.0413 0.23771 0.0693 0.43459 0.1356 0.88853 0.1974 1.3612 0.0618 0.47262 0.11928 0.96365 0.17053 1.4723 0.039 0.38712 0.071 0.79352 0.10232 1.2004z"/>
  </g>
 </g>
</svg>
